<svg width="1000" height="800" xmlns="http://www.w3.org/2000/svg" xmlns:xlink="http://www.w3.org/1999/xlink" version="1.1" baseProfile="full" viewBox="0 0 1000 800">
<rect width="1000" height="800" x="0" y="0" id="0" fill="rgb(41,52,65)"></rect>
<polyline points="522 251.6 538.9 137.9 553.9 137.9" fill="none" stroke="#fc97af"></polyline>
<polyline points="564.1 264.4 613.2 160.4 628.2 160.4" fill="none" stroke="#87f7cf"></polyline>
<polyline points="600.7 288.8 677.9 203.5 692.9 203.5" fill="none" stroke="#f7f494"></polyline>
<polyline points="628.6 322.8 727.2 263.6 742.2 263.6" fill="none" stroke="#72ccff"></polyline>
<polyline points="681.1 364.1 759.9 348.5 774.9 348.5" fill="none" stroke="#f7c5a0"></polyline>
<polyline points="664.1 428.9 761 445.9 776 445.9" fill="none" stroke="#d4a4eb"></polyline>
<polyline points="658.5 496.1 726.6 537.4 741.6 537.4" fill="none" stroke="#d2f5a6"></polyline>
<polyline points="608.1 548.1 656.2 614.1 671.2 614.1" fill="none" stroke="#76f2f2"></polyline>
<polyline points="543 584.6 560.1 658.1 575.1 658.1" fill="none" stroke="#fc97af"></polyline>
<polyline points="477.7 558.9 463.2 662.4 448.2 662.4" fill="none" stroke="#87f7cf"></polyline>
<polyline points="424 548.3 379.2 635.9 364.2 635.9" fill="none" stroke="#f7f494"></polyline>
<polyline points="368.7 519.4 304 578.3 289 578.3" fill="none" stroke="#72ccff"></polyline>
<polyline points="258.2 463.4 243.7 467.2 228.7 467.2" fill="none" stroke="#f7c5a0"></polyline>
<polyline points="297.4 343.1 244.9 328.3 229.9 328.3" fill="none" stroke="#d4a4eb"></polyline>
<polyline points="336.1 239.9 310.4 214.8 295.4 214.8" fill="none" stroke="#d2f5a6"></polyline>
<polyline points="439.1 176.9 430.2 144.4 415.2 144.4" fill="none" stroke="#76f2f2"></polyline>
<path d="M500 267A16 16 0 0 1 517.9 251.1A150 150 0 0 1 526.1 252.3A16 16 0 0 1 538.6 272.7L516.8 344.5A8.6 8.6 0 0 1 500 342Z" fill="#fc97af" stroke="#ccc" stroke-width="0" stroke-linejoin="round"></path>
<path d="M538.6 272.7A16 16 0 0 1 560.3 262.7A150 150 0 0 1 567.8 266.2A16 16 0 0 1 573.9 289.3L532.2 351.8A8.6 8.6 0 0 1 516.8 344.5Z" fill="#87f7cf" stroke="#ccc" stroke-width="0" stroke-linejoin="round"></path>
<path d="M573.9 289.3A16 16 0 0 1 597.6 286.1A150 150 0 0 1 603.7 291.6A16 16 0 0 1 602.8 315.5L544.8 363.2A8.6 8.6 0 0 1 532.2 351.8Z" fill="#f7f494" stroke="#ccc" stroke-width="0" stroke-linejoin="round"></path>
<path d="M602.8 315.5A16 16 0 0 1 626.4 319.3A150 150 0 0 1 630.7 326.3A16 16 0 0 1 622.9 349L553.5 377.8A8.6 8.6 0 0 1 544.8 363.2Z" fill="#72ccff" stroke="#ccc" stroke-width="0" stroke-linejoin="round"></path>
<path d="M655 335.6A16 16 0 0 1 676.4 345.7A184.6 184.6 0 0 1 683.8 382.9A16 16 0 0 1 667.8 400.4L561 400.1A12.2 12.2 0 0 1 556.4 376.6Z" fill="#f7c5a0" stroke="#ccc" stroke-width="0" stroke-linejoin="round"></path>
<path d="M649.8 400.4A16 16 0 0 1 665.7 418.1A166.7 166.7 0 0 1 661.9 439.5A16 16 0 0 1 640.9 450.8L555.9 420.1A10.3 10.3 0 0 1 559.4 400.1Z" fill="#d4a4eb" stroke="#ccc" stroke-width="0" stroke-linejoin="round"></path>
<path d="M658.7 457.2A16 16 0 0 1 667.7 479A185.4 185.4 0 0 1 647.6 512.2A16 16 0 0 1 624.1 514.3L544.9 441.4A12.3 12.3 0 0 1 557.5 420.7Z" fill="#d2f5a6" stroke="#ccc" stroke-width="0" stroke-linejoin="round"></path>
<path d="M622.5 512.8A16 16 0 0 1 622.4 536.5A183.3 183.3 0 0 1 592.7 558.2A16 16 0 0 1 570.1 551.1L525.6 455.3A12.1 12.1 0 0 1 544.8 441.3Z" fill="#76f2f2" stroke="#ccc" stroke-width="0" stroke-linejoin="round"></path>
<path d="M572.7 556.8A16 16 0 0 1 563.5 578.6A189.6 189.6 0 0 1 521.9 588.3A16 16 0 0 1 504 572.8L501.4 461.5A12.8 12.8 0 0 1 525.9 455.8Z" fill="#fc97af" stroke="#ccc" stroke-width="0" stroke-linejoin="round"></path>
<path d="M503.3 543.5A16 16 0 0 1 485.9 559.8A160.4 160.4 0 0 1 469.6 557.5A16 16 0 0 1 457.4 537L482.5 456.2A9.6 9.6 0 0 1 501.4 458.8Z" fill="#87f7cf" stroke="#ccc" stroke-width="0" stroke-linejoin="round"></path>
<path d="M455.5 543.1A16 16 0 0 1 433.9 553A166.7 166.7 0 0 1 414.5 543.1A16 16 0 0 1 409.9 519.7L464.3 447.5A10.3 10.3 0 0 1 482.3 456.7Z" fill="#f7f494" stroke="#ccc" stroke-width="0" stroke-linejoin="round"></path>
<path d="M403.4 528.4A16 16 0 0 1 379.8 530.6A177.5 177.5 0 0 1 358.7 507.4A16 16 0 0 1 363 484.1L448.5 431.6A11.5 11.5 0 0 1 463.7 448.3Z" fill="#72ccff" stroke="#ccc" stroke-width="0" stroke-linejoin="round"></path>
<path d="M301 522.1A16 16 0 0 1 278.5 515.9A250 250 0 0 1 250.1 407.6A16 16 0 0 1 266.7 391.1L436 397.6A16 16 0 0 1 451.1 410.3A50 50 0 0 0 452.3 415A16 16 0 0 1 445.4 433.5Z" fill="#f7c5a0" stroke="#ccc" stroke-width="0" stroke-linejoin="round"></path>
<path d="M306.4 392.6A16 16 0 0 1 291.1 374.7A210.4 210.4 0 0 1 308.5 312.7A16 16 0 0 1 330.9 305.4L444.6 369A15.3 15.3 0 0 1 436.6 397.6Z" fill="#d4a4eb" stroke="#ccc" stroke-width="0" stroke-linejoin="round"></path>
<path d="M314.5 296.2A16 16 0 0 1 309 273.4A229.2 229.2 0 0 1 369 212A16 16 0 0 1 391.9 217L467.4 344.9A16 16 0 0 1 464.9 364.4A50 50 0 0 0 463.6 365.7A16 16 0 0 1 444.1 368.7Z" fill="#d2f5a6" stroke="#ccc" stroke-width="0" stroke-linejoin="round"></path>
<path d="M390.9 215.2A16 16 0 0 1 397.5 192.7A231.3 231.3 0 0 1 482.8 169.4A16 16 0 0 1 500 185.3L500 336A16 16 0 0 1 487.9 351.5A50 50 0 0 0 485.8 352.1A16 16 0 0 1 467.4 344.9Z" fill="#76f2f2" stroke="#ccc" stroke-width="0" stroke-linejoin="round"></path>
<text dominant-baseline="central" text-anchor="start" style="font-size:12px;font-family:sans-serif;" transform="translate(558.8534 137.8638)" fill="#ccc" stroke="rgb(41,52,65)" stroke-width="2" paint-order="stroke" stroke-miterlimit="2">Firery</text>
<text dominant-baseline="central" text-anchor="start" style="font-size:12px;font-family:sans-serif;" transform="translate(633.2195 160.4038)" fill="#ccc" stroke="rgb(41,52,65)" stroke-width="2" paint-order="stroke" stroke-miterlimit="2">Windry</text>
<text dominant-baseline="central" text-anchor="start" style="font-size:12px;font-family:sans-serif;" transform="translate(697.8502 203.5457)" fill="#ccc" stroke="rgb(41,52,65)" stroke-width="2" paint-order="stroke" stroke-miterlimit="2">Stoney</text>
<text dominant-baseline="central" text-anchor="start" style="font-size:12px;font-family:sans-serif;" transform="translate(747.1884 263.5799)" fill="#ccc" stroke="rgb(41,52,65)" stroke-width="2" paint-order="stroke" stroke-miterlimit="2">Watery</text>
<text dominant-baseline="central" text-anchor="start" style="font-size:12px;font-family:sans-serif;" transform="translate(779.9476 348.5003)" fill="#ccc" stroke="rgb(41,52,65)" stroke-width="2" paint-order="stroke" stroke-miterlimit="2">Beary</text>
<text dominant-baseline="central" text-anchor="start" style="font-size:12px;font-family:sans-serif;" transform="translate(780.9928 445.9101)" fill="#ccc" stroke="rgb(41,52,65)" stroke-width="2" paint-order="stroke" stroke-miterlimit="2">Cochlefy</text>
<text dominant-baseline="central" text-anchor="start" style="font-size:12px;font-family:sans-serif;" transform="translate(746.6008 537.3939)" fill="#ccc" stroke="rgb(41,52,65)" stroke-width="2" paint-order="stroke" stroke-miterlimit="2">Flederfy</text>
<text dominant-baseline="central" text-anchor="start" style="font-size:12px;font-family:sans-serif;" transform="translate(676.1834 614.0835)" fill="#ccc" stroke="rgb(41,52,65)" stroke-width="2" paint-order="stroke" stroke-miterlimit="2">Focafy</text>
<text dominant-baseline="central" text-anchor="start" style="font-size:12px;font-family:sans-serif;" transform="translate(580.0763 658.1004)" fill="#ccc" stroke="rgb(41,52,65)" stroke-width="2" paint-order="stroke" stroke-miterlimit="2">Formify</text>
<text dominant-baseline="central" text-anchor="end" style="font-size:12px;font-family:sans-serif;" transform="translate(443.2371 662.4376)" fill="#ccc" stroke="rgb(41,52,65)" stroke-width="2" paint-order="stroke" stroke-miterlimit="2">Kupufy</text>
<text dominant-baseline="central" text-anchor="end" style="font-size:12px;font-family:sans-serif;" transform="translate(359.2006 635.8654)" fill="#ccc" stroke="rgb(41,52,65)" stroke-width="2" paint-order="stroke" stroke-miterlimit="2">Oursinfy</text>
<text dominant-baseline="central" text-anchor="end" style="font-size:12px;font-family:sans-serif;" transform="translate(283.9825 578.3315)" fill="#ccc" stroke="rgb(41,52,65)" stroke-width="2" paint-order="stroke" stroke-miterlimit="2">Phoenexy</text>
<text dominant-baseline="central" text-anchor="end" style="font-size:12px;font-family:sans-serif;" transform="translate(223.6551 467.1736)" fill="#ccc" stroke="rgb(41,52,65)" stroke-width="2" paint-order="stroke" stroke-miterlimit="2">Daemon</text>
<text dominant-baseline="central" text-anchor="end" style="font-size:12px;font-family:sans-serif;" transform="translate(224.8899 328.2794)" fill="#ccc" stroke="rgb(41,52,65)" stroke-width="2" paint-order="stroke" stroke-miterlimit="2">Scorpy</text>
<text dominant-baseline="central" text-anchor="end" style="font-size:12px;font-family:sans-serif;" transform="translate(290.4466 214.8122)" fill="#ccc" stroke="rgb(41,52,65)" stroke-width="2" paint-order="stroke" stroke-miterlimit="2">Axoloty</text>
<text dominant-baseline="central" text-anchor="end" style="font-size:12px;font-family:sans-serif;" transform="translate(410.1583 144.3691)" fill="#ccc" stroke="rgb(41,52,65)" stroke-width="2" paint-order="stroke" stroke-miterlimit="2">Adter</text>
<path d="M-5 -5l957.2 0l0 48l-957.2 0Z" transform="translate(26.38 757)" fill="rgb(0,0,0)" fill-opacity="0" stroke="#ccc" stroke-width="0"></path>
<path d="M3.5 0L21.5 0A3.5 3.5 0 0 1 25 3.5L25 10.5A3.5 3.5 0 0 1 21.5 14L3.5 14A3.5 3.5 0 0 1 0 10.5L0 3.5A3.5 3.5 0 0 1 3.5 0" transform="translate(26.38 757)" fill="#fc97af" stroke="#ccc" stroke-width="0" stroke-linecap="butt" stroke-miterlimit="10" stroke-linejoin="round"></path>
<text dominant-baseline="central" text-anchor="start" style="font-size:12px;font-family:sans-serif;" x="30" y="7" transform="translate(26.38 757)" fill="#999999">Firery</text>
<path d="M3.5 0L21.5 0A3.5 3.5 0 0 1 25 3.5L25 10.5A3.5 3.5 0 0 1 21.5 14L3.5 14A3.5 3.5 0 0 1 0 10.5L0 3.5A3.5 3.5 0 0 1 3.5 0" transform="translate(96.98 757)" fill="#87f7cf" stroke="#ccc" stroke-width="0" stroke-linecap="butt" stroke-miterlimit="10" stroke-linejoin="round"></path>
<text dominant-baseline="central" text-anchor="start" style="font-size:12px;font-family:sans-serif;" x="30" y="7" transform="translate(96.98 757)" fill="#999999">Windry</text>
<path d="M3.5 0L21.5 0A3.5 3.5 0 0 1 25 3.5L25 10.5A3.5 3.5 0 0 1 21.5 14L3.5 14A3.5 3.5 0 0 1 0 10.5L0 3.5A3.5 3.5 0 0 1 3.5 0" transform="translate(174.3 757)" fill="#f7f494" stroke="#ccc" stroke-width="0" stroke-linecap="butt" stroke-miterlimit="10" stroke-linejoin="round"></path>
<text dominant-baseline="central" text-anchor="start" style="font-size:12px;font-family:sans-serif;" x="30" y="7" transform="translate(174.3 757)" fill="#999999">Stoney</text>
<path d="M3.5 0L21.5 0A3.5 3.5 0 0 1 25 3.5L25 10.5A3.5 3.5 0 0 1 21.5 14L3.5 14A3.5 3.5 0 0 1 0 10.5L0 3.5A3.5 3.5 0 0 1 3.5 0" transform="translate(251.86 757)" fill="#72ccff" stroke="#ccc" stroke-width="0" stroke-linecap="butt" stroke-miterlimit="10" stroke-linejoin="round"></path>
<text dominant-baseline="central" text-anchor="start" style="font-size:12px;font-family:sans-serif;" x="30" y="7" transform="translate(251.86 757)" fill="#999999">Watery</text>
<path d="M3.5 0L21.5 0A3.5 3.5 0 0 1 25 3.5L25 10.5A3.5 3.5 0 0 1 21.5 14L3.5 14A3.5 3.5 0 0 1 0 10.5L0 3.5A3.5 3.5 0 0 1 3.5 0" transform="translate(329.9 757)" fill="#f7c5a0" stroke="#ccc" stroke-width="0" stroke-linecap="butt" stroke-miterlimit="10" stroke-linejoin="round"></path>
<text dominant-baseline="central" text-anchor="start" style="font-size:12px;font-family:sans-serif;" x="30" y="7" transform="translate(329.9 757)" fill="#999999">Beary</text>
<path d="M3.5 0L21.5 0A3.5 3.5 0 0 1 25 3.5L25 10.5A3.5 3.5 0 0 1 21.5 14L3.5 14A3.5 3.5 0 0 1 0 10.5L0 3.5A3.5 3.5 0 0 1 3.5 0" transform="translate(401.34 757)" fill="#d4a4eb" stroke="#ccc" stroke-width="0" stroke-linecap="butt" stroke-miterlimit="10" stroke-linejoin="round"></path>
<text dominant-baseline="central" text-anchor="start" style="font-size:12px;font-family:sans-serif;" x="30" y="7" transform="translate(401.34 757)" fill="#999999">Cochlefy</text>
<path d="M3.5 0L21.5 0A3.5 3.5 0 0 1 25 3.5L25 10.5A3.5 3.5 0 0 1 21.5 14L3.5 14A3.5 3.5 0 0 1 0 10.5L0 3.5A3.5 3.5 0 0 1 3.5 0" transform="translate(488.14 757)" fill="#d2f5a6" stroke="#ccc" stroke-width="0" stroke-linecap="butt" stroke-miterlimit="10" stroke-linejoin="round"></path>
<text dominant-baseline="central" text-anchor="start" style="font-size:12px;font-family:sans-serif;" x="30" y="7" transform="translate(488.14 757)" fill="#999999">Flederfy</text>
<path d="M3.5 0L21.5 0A3.5 3.5 0 0 1 25 3.5L25 10.5A3.5 3.5 0 0 1 21.5 14L3.5 14A3.5 3.5 0 0 1 0 10.5L0 3.5A3.5 3.5 0 0 1 3.5 0" transform="translate(571.58 757)" fill="#76f2f2" stroke="#ccc" stroke-width="0" stroke-linecap="butt" stroke-miterlimit="10" stroke-linejoin="round"></path>
<text dominant-baseline="central" text-anchor="start" style="font-size:12px;font-family:sans-serif;" x="30" y="7" transform="translate(571.58 757)" fill="#999999">Focafy</text>
<path d="M3.5 0L21.5 0A3.5 3.5 0 0 1 25 3.5L25 10.5A3.5 3.5 0 0 1 21.5 14L3.5 14A3.5 3.5 0 0 1 0 10.5L0 3.5A3.5 3.5 0 0 1 3.5 0" transform="translate(647.7 757)" fill="#fc97af" stroke="#ccc" stroke-width="0" stroke-linecap="butt" stroke-miterlimit="10" stroke-linejoin="round"></path>
<text dominant-baseline="central" text-anchor="start" style="font-size:12px;font-family:sans-serif;" x="30" y="7" transform="translate(647.7 757)" fill="#999999">Formify</text>
<path d="M3.5 0L21.5 0A3.5 3.5 0 0 1 25 3.5L25 10.5A3.5 3.5 0 0 1 21.5 14L3.5 14A3.5 3.5 0 0 1 0 10.5L0 3.5A3.5 3.5 0 0 1 3.5 0" transform="translate(727.66 757)" fill="#87f7cf" stroke="#ccc" stroke-width="0" stroke-linecap="butt" stroke-miterlimit="10" stroke-linejoin="round"></path>
<text dominant-baseline="central" text-anchor="start" style="font-size:12px;font-family:sans-serif;" x="30" y="7" transform="translate(727.66 757)" fill="#999999">Kupufy</text>
<path d="M3.5 0L21.5 0A3.5 3.5 0 0 1 25 3.5L25 10.5A3.5 3.5 0 0 1 21.5 14L3.5 14A3.5 3.5 0 0 1 0 10.5L0 3.5A3.5 3.5 0 0 1 3.5 0" transform="translate(805.22 757)" fill="#f7f494" stroke="#ccc" stroke-width="0" stroke-linecap="butt" stroke-miterlimit="10" stroke-linejoin="round"></path>
<text dominant-baseline="central" text-anchor="start" style="font-size:12px;font-family:sans-serif;" x="30" y="7" transform="translate(805.22 757)" fill="#999999">Oursinfy</text>
<path d="M3.5 0L21.5 0A3.5 3.5 0 0 1 25 3.5L25 10.5A3.5 3.5 0 0 1 21.5 14L3.5 14A3.5 3.5 0 0 1 0 10.5L0 3.5A3.5 3.5 0 0 1 3.5 0" transform="translate(889.98 757)" fill="#72ccff" stroke="#ccc" stroke-width="0" stroke-linecap="butt" stroke-miterlimit="10" stroke-linejoin="round"></path>
<text dominant-baseline="central" text-anchor="start" style="font-size:12px;font-family:sans-serif;" x="30" y="7" transform="translate(889.98 757)" fill="#999999">Phoenexy</text>
<path d="M3.5 0L21.5 0A3.5 3.5 0 0 1 25 3.5L25 10.5A3.5 3.5 0 0 1 21.5 14L3.5 14A3.5 3.5 0 0 1 0 10.5L0 3.5A3.5 3.5 0 0 1 3.5 0" transform="translate(26.38 781)" fill="#f7c5a0" stroke="#ccc" stroke-width="0" stroke-linecap="butt" stroke-miterlimit="10" stroke-linejoin="round"></path>
<text dominant-baseline="central" text-anchor="start" style="font-size:12px;font-family:sans-serif;" x="30" y="7" transform="translate(26.38 781)" fill="#999999">Daemon</text>
<path d="M3.5 0L21.5 0A3.5 3.5 0 0 1 25 3.5L25 10.5A3.5 3.5 0 0 1 21.5 14L3.5 14A3.5 3.5 0 0 1 0 10.5L0 3.5A3.5 3.5 0 0 1 3.5 0" transform="translate(111.86 781)" fill="#d4a4eb" stroke="#ccc" stroke-width="0" stroke-linecap="butt" stroke-miterlimit="10" stroke-linejoin="round"></path>
<text dominant-baseline="central" text-anchor="start" style="font-size:12px;font-family:sans-serif;" x="30" y="7" transform="translate(111.86 781)" fill="#999999">Scorpy</text>
<path d="M3.5 0L21.5 0A3.5 3.5 0 0 1 25 3.5L25 10.5A3.5 3.5 0 0 1 21.5 14L3.5 14A3.5 3.5 0 0 1 0 10.5L0 3.5A3.5 3.5 0 0 1 3.5 0" transform="translate(189.3 781)" fill="#d2f5a6" stroke="#ccc" stroke-width="0" stroke-linecap="butt" stroke-miterlimit="10" stroke-linejoin="round"></path>
<text dominant-baseline="central" text-anchor="start" style="font-size:12px;font-family:sans-serif;" x="30" y="7" transform="translate(189.3 781)" fill="#999999">Axoloty</text>
<path d="M3.5 0L21.5 0A3.5 3.5 0 0 1 25 3.5L25 10.5A3.5 3.5 0 0 1 21.5 14L3.5 14A3.5 3.5 0 0 1 0 10.5L0 3.5A3.5 3.5 0 0 1 3.5 0" transform="translate(268.78 781)" fill="#76f2f2" stroke="#ccc" stroke-width="0" stroke-linecap="butt" stroke-miterlimit="10" stroke-linejoin="round"></path>
<text dominant-baseline="central" text-anchor="start" style="font-size:12px;font-family:sans-serif;" x="30" y="7" transform="translate(268.78 781)" fill="#999999">Adter</text>
<path d="M-5 -5l151.5 0l0 28l-151.5 0Z" transform="translate(5 5)" fill="rgb(0,0,0)" fill-opacity="0" stroke="#ccc" stroke-width="0"></path>
<text dominant-baseline="central" text-anchor="start" style="font-size:18px;font-family:sans-serif;font-weight:bold;" xml:space="preserve" y="9" transform="translate(5 5)" fill="#ffffff">Mintmons Level 1</text>
</svg>